<svg id="Calque_1" data-name="Calque 1" xmlns="http://www.w3.org/2000/svg" xmlns:xlink="http://www.w3.org/1999/xlink" viewBox="0 0 148.46 148.25"><defs><style>.cls-1{fill:none;}.cls-2{clip-path:url(#clip-path);}.cls-3{fill:#0a1e32;}</style><clipPath id="clip-path"><rect class="cls-1" width="148.46" height="148.25"/></clipPath></defs><title>logo_round_lelaz</title><g id="Groupe_117" data-name="Groupe 117"><g class="cls-2"><g id="Groupe_116" data-name="Groupe 116"><g id="Groupe_114" data-name="Groupe 114"><path id="Tracé_36" data-name="Tracé 36" class="cls-3" d="M31.18,100.23l-.88-1a1.25,1.25,0,0,0-.87-.47,1.2,1.2,0,0,0-.87.27L11.88,113.05a1.16,1.16,0,0,0-.41.86,1.32,1.32,0,0,0,.34,1,1.38,1.38,0,0,0,.88.5,1.14,1.14,0,0,0,.9-.26ZM27.79,116.8a1.55,1.55,0,0,0,.92.55,1.09,1.09,0,0,0,.95-.22,1.06,1.06,0,0,0,.39-.83,1.47,1.47,0,0,0-.37-.93L24.32,109l-1.81,1.53Zm9.38-5.72a1.48,1.48,0,0,0,.89.52,1.06,1.06,0,0,0,.92-.24,1.11,1.11,0,0,0,.41-.86,1.42,1.42,0,0,0-.34-1L32.65,102l-1.85,1.57Zm5.07,16.17a1.29,1.29,0,0,1,.55.51,1.64,1.64,0,0,1,.13.72l-.59,11.67a1.3,1.3,0,0,0,.17.7,1.39,1.39,0,0,0,.53.52,1.38,1.38,0,0,0,1,.17,1,1,0,0,0,.75-.54,1.11,1.11,0,0,0,.14-.51l.58-10.26a1.66,1.66,0,0,1,.16-.49.74.74,0,0,1,.48-.38,1.79,1.79,0,0,1,.65,0c.26,0,.53.06.79.08a5.57,5.57,0,0,0,.82,0,6.19,6.19,0,0,0,3-.85,5.81,5.81,0,0,0,2.8-4.5,6.11,6.11,0,0,0-.3-2.4,7.13,7.13,0,0,0-3.3-3.89l-3.95-2.21-1.18,2.13,3.94,2.2a4.31,4.31,0,0,1,2,2.37,3.69,3.69,0,0,1,.19,1.44,3.32,3.32,0,0,1-1.41,2.53,3.71,3.71,0,0,1-1.34.61,4.52,4.52,0,0,1-1.51.07,4.44,4.44,0,0,1-1.55-.52l-3.95-2.21-1.18,2.12Zm1.1-13.47a1.22,1.22,0,0,0-1-.16,1.09,1.09,0,0,0-.71.56L31,133.25a1.1,1.1,0,0,0-.08.95,1.34,1.34,0,0,0,.66.78,1.32,1.32,0,0,0,1,.16,1.12,1.12,0,0,0,.75-.56l11.27-20.1Zm21.9,24.06a.64.64,0,0,0,0,.2.67.67,0,0,1,0,.2.92.92,0,0,1-.3.51.67.67,0,0,1-.58.2c-.57-.1-1.12-.18-1.67-.26l-1.66-.27-1.14,2.28,4.88.81a1.19,1.19,0,0,1,.68.44,1.57,1.57,0,0,1,.36.73l.51,4a1.42,1.42,0,0,0,.39.78,1.39,1.39,0,0,0,.82.42,1.55,1.55,0,0,0,1.09-.2,1.14,1.14,0,0,0,.59-.86,1.45,1.45,0,0,0,0-.36l-3.31-22.81a1.14,1.14,0,0,0-.42-.69,1.74,1.74,0,0,0-.78-.36,1.25,1.25,0,0,0-1.13.24,3.58,3.58,0,0,0-.6.94Zm-12.45,5.88a1.06,1.06,0,0,0-.12.34,1.23,1.23,0,0,0,.27,1,1.52,1.52,0,0,0,1.87.41,1.29,1.29,0,0,0,.63-.61c.67-1.34,1.32-2.68,2-4s1.28-2.65,1.94-4c.44-.86.86-1.71,1.28-2.55s.84-1.7,1.28-2.56l-.69-4.55Zm39.52,1.48a1.51,1.51,0,0,0,2.14,0l.09-.11a1.07,1.07,0,0,0,.23-.91L90.58,122.5a1.11,1.11,0,0,0-.53-.77,1.45,1.45,0,0,0-1.87.39,1.13,1.13,0,0,0-.24.95q.68,3.54,1.36,7t1.36,7a.8.8,0,0,1-.62.94h0a1.13,1.13,0,0,1-.55,0,1,1,0,0,1-.49-.27L76.55,124.49a1.07,1.07,0,0,0-1.07-.32,1.37,1.37,0,0,0-.88.6,1.35,1.35,0,0,0-.23,1Zm-13.78,2.06a1.13,1.13,0,0,0,.54.78,1.36,1.36,0,0,0,1,.18,1.32,1.32,0,0,0,.85-.52,1.09,1.09,0,0,0,.21-.91l-2.54-13.22-3.4-3.72Zm31.8-11.4a5.69,5.69,0,0,1-1.9.42,5.31,5.31,0,0,1-1.82-.2,5.2,5.2,0,0,1-1.6-.79,4.56,4.56,0,0,1-1.23-1.32l-4.9-7.86a4.54,4.54,0,0,1-.65-1.69,5.31,5.31,0,0,1,.61-3.51,6.14,6.14,0,0,1,1.21-1.52l-1.33-2.13a8.62,8.62,0,0,0-2,2.27,8.52,8.52,0,0,0-1.06,2.66,8.06,8.06,0,0,0-.08,2.77,6.76,6.76,0,0,0,1,2.61l4.91,7.86a6.73,6.73,0,0,0,1.92,2,7.84,7.84,0,0,0,2.53,1.15,8.06,8.06,0,0,0,2.85.21,9,9,0,0,0,2.92-.77Zm3.25,1a9.28,9.28,0,0,0,1.78-1.92,7.8,7.8,0,0,0,1.07-2.21,8.19,8.19,0,0,0,0-4.73.91.91,0,0,0-.12-.31,1.11,1.11,0,0,0-.84-.55,1.46,1.46,0,0,0-1,.2,1.31,1.31,0,0,0-.6.69,1.61,1.61,0,0,0,0,.87,6.75,6.75,0,0,0,.14.76,2.71,2.71,0,0,1,.1.75,5,5,0,0,1-.41,2.29,5.8,5.8,0,0,1-1.42,2ZM102,118.21a6.2,6.2,0,0,1,2.38-.43,4.74,4.74,0,0,1,2.21.56,3.22,3.22,0,0,1,.66.42,5.49,5.49,0,0,0,.67.49,1.9,1.9,0,0,0,.73.27,1.23,1.23,0,0,0,.81-.2,1.41,1.41,0,0,0,.62-.85,1.28,1.28,0,0,0-.15-1,1.48,1.48,0,0,0-.22-.29,7.33,7.33,0,0,0-1.94-1.3,7.81,7.81,0,0,0-2.27-.62,8.6,8.6,0,0,0-2.43.06,9.15,9.15,0,0,0-2.41.76ZM119.7,101a1.42,1.42,0,0,0,.34-1,1.08,1.08,0,0,0-1.3-1.07,1.4,1.4,0,0,0-.85.5l-6.21,7.72,1.87,1.46Zm-9.4,7.9-.85,1a1.37,1.37,0,0,0-.32,1,1.15,1.15,0,0,0,.43.86l16.8,13.53a1.11,1.11,0,0,0,.91.23,1.42,1.42,0,0,0,.87-.53l.85-1.06Zm26.37,5.52a1.36,1.36,0,0,0,.32-1,1.07,1.07,0,0,0-.42-.82,1.13,1.13,0,0,0-.9-.25,1.35,1.35,0,0,0-.87.51l-6.27,7.83,1.87,1.46Zm-9.59-5.31a1.72,1.72,0,0,0,.37-1,1.1,1.1,0,0,0-.41-.92,1,1,0,0,0-.89-.18,1.49,1.49,0,0,0-.84.53l-5.19,6.44L122,115.4Z"/></g><g id="Groupe_115" data-name="Groupe 115"><path id="Tracé_37" data-name="Tracé 37" class="cls-3" d="M25,81.35A8.29,8.29,0,0,0,23.88,79a7.2,7.2,0,0,0-1.74-1.7A6.15,6.15,0,0,0,20,76.37a5.6,5.6,0,0,0-2.41,0A5.48,5.48,0,0,0,14.7,78a6.83,6.83,0,0,0-1.67,3l-2,7.59a3.33,3.33,0,0,1-1,1.66A3.46,3.46,0,0,1,7,91.18a4.12,4.12,0,0,1-1.3-.54,4.37,4.37,0,0,1-1.08-1,5.57,5.57,0,0,1-.76-1.37l-2.28.5a8.93,8.93,0,0,0,1.13,2.4,6.54,6.54,0,0,0,1.7,1.74,6.18,6.18,0,0,0,2.14.92,5.63,5.63,0,0,0,2.45,0,5.48,5.48,0,0,0,2.2-1,6.76,6.76,0,0,0,1.65-1.88c.08-.11.16-.23.23-.35a1.16,1.16,0,0,0,.13-.37l2.22-8.41a4,4,0,0,1,1-1.78,3.39,3.39,0,0,1,1.7-1,3.53,3.53,0,0,1,2.71.51,4.45,4.45,0,0,1,1,1,4.11,4.11,0,0,1,.67,1.36ZM23,84.09a5.66,5.66,0,0,1-.34,2.24,11,11,0,0,1-1,2,2.51,2.51,0,0,0-.28.57,1.26,1.26,0,0,0,0,.64,1.37,1.37,0,0,0,.59.87,1.16,1.16,0,0,0,1,.21.71.71,0,0,0,.33-.15,2.08,2.08,0,0,0,.27-.32,8.78,8.78,0,0,0,1.62-3,10,10,0,0,0,.39-3.57ZM3.55,86A6.13,6.13,0,0,1,4,83.63a6.85,6.85,0,0,1,1.29-2,2.2,2.2,0,0,0,.37-.58,1.11,1.11,0,0,0,.05-.72,1.45,1.45,0,0,0-.6-.89,1.19,1.19,0,0,0-1-.22,1.34,1.34,0,0,0-.7.42l.16-.1a7.37,7.37,0,0,0-2,3.15,9.87,9.87,0,0,0-.44,3.86Zm.18-26.66a1.47,1.47,0,0,0-.26-1,1,1,0,0,0-.81-.5,1.16,1.16,0,0,0-.92.33,1.41,1.41,0,0,0-.46.94L0,73.48a1.29,1.29,0,0,0,.29,1,1.16,1.16,0,0,0,.84.48A1.07,1.07,0,0,0,2,74.6a1.44,1.44,0,0,0,.43-.94ZM23.44,69.69a1.08,1.08,0,0,0,.91-.36,1.57,1.57,0,0,0,.45-1,1.4,1.4,0,0,0-.25-1,1.06,1.06,0,0,0-.8-.45L5.31,65.3,5.07,68Zm2.35-16A5.9,5.9,0,0,1,24.43,55a5.72,5.72,0,0,1-1.62.81,5.46,5.46,0,0,1-1.75.22,4.63,4.63,0,0,1-1.72-.42L5.09,49a1.08,1.08,0,0,0-.93,0,1.32,1.32,0,0,0-.71.7,1.55,1.55,0,0,0-.09,1.08,1.12,1.12,0,0,0,.62.77l14.19,6.63a6.61,6.61,0,0,0,2.7.64,7.86,7.86,0,0,0,2.72-.42A8.49,8.49,0,0,0,26.11,57a8.59,8.59,0,0,0,2-2.28Zm3.27-1a8.84,8.84,0,0,0,.45-3,8.42,8.42,0,0,0-.57-2.8,7.85,7.85,0,0,0-1.44-2.32,6.93,6.93,0,0,0-2.23-1.65L11.08,36.31a1.18,1.18,0,0,0-1,0,1.56,1.56,0,0,0-.76.74,1.38,1.38,0,0,0-.08,1,1.08,1.08,0,0,0,.61.71l14.26,6.62a4.49,4.49,0,0,1,1.43,1,5.16,5.16,0,0,1,1,1.48,5.39,5.39,0,0,1,.42,1.77,5.6,5.6,0,0,1-.18,1.91ZM39.54,37.53A7.62,7.62,0,0,0,42,32.59a7,7,0,0,0-.29-2.6,5.84,5.84,0,0,0-1.33-2.28L33,19.8a5.82,5.82,0,0,0-2.18-1.49,6.68,6.68,0,0,0-2.57-.46,7.46,7.46,0,0,0-2.64.55A7.89,7.89,0,0,0,23.18,20L20.24,22.7l1.61,1.74L24.8,21.7a4.8,4.8,0,0,1,1.55-1,4.74,4.74,0,0,1,1.7-.35,4.21,4.21,0,0,1,1.65.31,4,4,0,0,1,1.39,1l7.35,7.89A3.85,3.85,0,0,1,39.3,31a4.24,4.24,0,0,1,.2,1.66A4.63,4.63,0,0,1,39,34.31a5,5,0,0,1-1.1,1.48l-3,2.75,1.64,1.71ZM17.65,25.11a1.3,1.3,0,0,0-.44.9,1.15,1.15,0,0,0,.31.9L32.2,42.68a1,1,0,0,0,.75.39,1.61,1.61,0,0,0,.73-.21,4.44,4.44,0,0,0,.7-.53l.64-.6L18.64,24.19ZM40.19,8.89a1.09,1.09,0,0,0-.73-.58,1.34,1.34,0,0,0-1,.12,1.44,1.44,0,0,0-.68.78,1.2,1.2,0,0,0,.06,1L48.15,29.62a1.12,1.12,0,0,0,.75.59,1.35,1.35,0,0,0,1-.13,1.31,1.31,0,0,0,.66-.73,1.12,1.12,0,0,0-.07-.93Zm23.55,16a8.64,8.64,0,0,0,4.58-3.61,7.64,7.64,0,0,0,1-2.59,6.9,6.9,0,0,0,0-2.79c-.34-1.52-.67-3-1-4.54s-.67-3-1-4.54a6.66,6.66,0,0,0-1.12-2.54,7.93,7.93,0,0,0-2-1.93,8.46,8.46,0,0,0-2.62-1.17,8.64,8.64,0,0,0-3-.21l.54,2.46A5.76,5.76,0,0,1,61,3.65a5.69,5.69,0,0,1,1.65.83,5.38,5.38,0,0,1,1.24,1.28,4.61,4.61,0,0,1,.71,1.62l2,9.09a4.32,4.32,0,0,1,0,1.79,5.57,5.57,0,0,1-.6,1.67,5.44,5.44,0,0,1-1.16,1.42,6,6,0,0,1-1.65,1Zm-2.77-2a5.91,5.91,0,0,1-1.91-.25,5.32,5.32,0,0,1-2.87-2.09,4.58,4.58,0,0,1-.71-1.63l-2-9.08a4.35,4.35,0,0,1,0-1.76,5.22,5.22,0,0,1,.6-1.67A5.16,5.16,0,0,1,55.22,5a5.68,5.68,0,0,1,1.64-1l-.55-2.52A8.94,8.94,0,0,0,53.68,2.9,8.43,8.43,0,0,0,51.78,5a7.17,7.17,0,0,0-1,2.56,6.9,6.9,0,0,0,0,2.79l2,9.08A7.23,7.23,0,0,0,53.91,22a7.5,7.5,0,0,0,2,1.91A8.62,8.62,0,0,0,58.5,25.1a9.24,9.24,0,0,0,3,.25ZM88,1.59a1.13,1.13,0,0,0-.13-.93A1.28,1.28,0,0,0,87,.06,1.44,1.44,0,0,0,86,.14a1.09,1.09,0,0,0-.64.73L79.66,21.93a1,1,0,0,0,.08.79,1.45,1.45,0,0,0,.59.51,3.48,3.48,0,0,0,.83.32l.82.23Zm4.58,25.08a1.55,1.55,0,0,0,1.06-.07,1,1,0,0,0,.62-.7A1,1,0,0,0,94,25a1.6,1.6,0,0,0-.89-.6l-8.26-2.23-.62,2.29Zm29.09-7.11a1.58,1.58,0,0,0,1,.35,1,1,0,0,0,.85-.41,1.08,1.08,0,0,0,.19-.92,1.55,1.55,0,0,0-.56-.86l-8.22-6.3-1.41,1.9ZM113.1,10,112,9.16a1.5,1.5,0,0,0-1-.32,1.11,1.11,0,0,0-.85.44L97,26.39a1.11,1.11,0,0,0-.19.93,1.54,1.54,0,0,0,.58.89l1.13.86Zm-4.45,26.83a1.43,1.43,0,0,0,1,.33,1.06,1.06,0,0,0,.83-.43,1.13,1.13,0,0,0,.21-.92,1.41,1.41,0,0,0-.57-.88l-8.34-6.36-1.41,1.9Zm5-9.76a1.87,1.87,0,0,0,1.07.37,1,1,0,0,0,.92-.42.94.94,0,0,0,.15-.9,1.58,1.58,0,0,0-.58-.85L108.34,20l-1.41,1.9Zm19.18,2.4a1.15,1.15,0,0,0,.54-.78,1.32,1.32,0,0,0-.2-1,1.5,1.5,0,0,0-.84-.66,1.12,1.12,0,0,0-1,.1L112.9,38.73a.89.89,0,0,0-.47.63,1.48,1.48,0,0,0,.08.78,4,4,0,0,0,.39.8l.45.72ZM119.14,51a1.47,1.47,0,0,0,.82.67,1,1,0,0,0,.93-.1,1,1,0,0,0,.49-.81,1.59,1.59,0,0,0-.25-1l-4.54-7.25-2,1.25Zm13.7,13.14-.18.1a.44.44,0,0,1-.19.07.84.84,0,0,1-.58-.12.67.67,0,0,1-.39-.5c-.11-.59-.23-1.16-.35-1.73s-.23-1.13-.34-1.72l-2.54-.32,1,5.08a1.23,1.23,0,0,1-.18.82,1.46,1.46,0,0,1-.56.62L125,68.33a1.35,1.35,0,0,0-.59.66,1.49,1.49,0,0,0-.11,1,1.69,1.69,0,0,0,.57,1,1.18,1.18,0,0,0,1,.28,1.63,1.63,0,0,0,.34-.14l20.19-11.31a1.18,1.18,0,0,0,.5-.66,1.92,1.92,0,0,0,.06-.89,1.27,1.27,0,0,0-.63-1,3.36,3.36,0,0,0-1.09-.27ZM122.92,54a1.15,1.15,0,0,0-.37,0,1.22,1.22,0,0,0-.83.62,1.56,1.56,0,0,0-.18,1.12,1.58,1.58,0,0,0,.46.86,1.35,1.35,0,0,0,.8.41c1.5.18,3,.35,4.44.5s2.94.32,4.42.51l2.85.35,2.85.35,4-2.28Zm1.7,21.64,19.57,18.25a1.17,1.17,0,0,0,.56.27.92.92,0,0,0,.67-.1,1.13,1.13,0,0,0,.41-.48,2.82,2.82,0,0,0,.24-.69c.05-.26.1-.5.14-.73L126.77,74a1,1,0,0,0-.59-.3,1.13,1.13,0,0,0-.93.26,1.56,1.56,0,0,0-.52.93Zm19.94,11.8,2.11,2,1.77-10.72a1.41,1.41,0,0,0-.18-1,1.12,1.12,0,0,0-.78-.52,1.11,1.11,0,0,0-.91.25,1.41,1.41,0,0,0-.5.92ZM126.27,80.3l-2.1-2-1.79,10.79a1.38,1.38,0,0,0,.19,1,1.1,1.1,0,0,0,.78.52,1.06,1.06,0,0,0,.9-.26,1.37,1.37,0,0,0,.5-.91Z"/></g></g></g></g></svg>