<?xml version="1.0" encoding="utf-8"?>
<!-- Generator: Adobe Illustrator 23.0.6, SVG Export Plug-In . SVG Version: 6.00 Build 0)  -->
<svg version="1.1" id="Calque_1" xmlns="http://www.w3.org/2000/svg" xmlns:xlink="http://www.w3.org/1999/xlink" x="0px" y="0px"
	 viewBox="0 0 299 81.7" style="enable-background:new 0 0 299 81.7;" xml:space="preserve">
<style type="text/css">
	.st0{fill:#88FC79;}
</style>
<path id="Tracé_1" class="st0" d="M38.8,68.5C25.3,68.5,16.7,57,16.7,41c0-15.6,7.1-27.6,22-27.6c9.5,0,15.6,5.2,17,13H72
	C70.3,11.5,58.5,0,38.7,0C14.9,0,0,17.8,0,41c0,23.6,16.1,40.6,38.8,40.6c11.2,0,18.9-3.3,24.5-8.3c5.3-4.8,8.5-11.4,8.9-18.5h-16
	C55.1,62.9,48.4,68.5,38.8,68.5z"/>
<path id="Tracé_2" class="st0" d="M265.6,68.5c-12.6,0-20.9-10-22-24.3H299C299,26.8,293.1,0,262.1,0c-23.8,0-35.3,20-35.3,41
	c0,23.6,16.1,40.6,38.8,40.6c11.2,0,18.9-3.3,24.5-8.3c5.3-4.8,8.5-11.4,8.9-18.5h-16C281.9,62.9,275.2,68.5,265.6,68.5z
	 M262.1,13.4c11.7,0,18.1,7.5,20.3,16.9h-38C246.1,20.7,251,13.4,262.1,13.4z"/>
<path id="Tracé_3" class="st0" d="M113.8,0C90,0,74.9,17.4,74.9,40.9S90,81.7,113.8,81.7s38.8-17.3,38.8-40.8S137.6,0,113.8,0z
	 M113.9,68.6c-14.8,0-22.3-12.2-22.3-27.7c0-15.7,7.6-27.9,22.3-27.9s22,12.2,22,27.9C135.9,56.5,128.7,68.6,113.9,68.6L113.9,68.6z
	"/>
<path id="Tracé_4" class="st0" d="M219.7,58.4c-1-9.5-4.8-13.7-12.3-15.8v-0.3c10.4-2.7,14.8-9.8,14.8-19c0-13-10.4-21.8-25.9-21.8
	h-37v78.4h16.4V48.5h13.2c10.2,0,15.1,4.8,15.8,13.4c0.7,8.4,0.9,17.2,2.9,18.1h15.7v-0.8C220.4,78,220.8,69.5,219.7,58.4z
	 M193,36.2h-17.4V14.4h17.8c8.7,0,12.9,4.7,12.9,11.1C206.3,31.7,201.9,36.2,193,36.2z"/>
</svg>
